<?xml version="1.0" encoding="utf-8"?>
<!-- Generator: Adobe Illustrator 23.1.0, SVG Export Plug-In . SVG Version: 6.00 Build 0)  -->
<svg version="1.1" id="Layer_1" xmlns="http://www.w3.org/2000/svg" xmlns:xlink="http://www.w3.org/1999/xlink" x="0px" y="0px"
	 viewBox="0 0 370.1 367.4" style="enable-background:new 0 0 370.1 367.4;" xml:space="preserve">
<style type="text/css">
	.st0{fill:#194F8D;}
</style>
<path class="st0" d="M363.5,197.2c-1.9,10.6-3.2,21.3-5.9,31.7c-18,69.6-76.3,121.5-147.3,131.5c-3.9,0.6-7.8,1.2-11.8,1.8
	c-9,0-18,0-27,0c-10.6-1.9-21.4-3.2-31.8-5.9c-72.2-18.6-125-80.6-132.4-154.8c-0.1-1.4-0.6-2.9-0.9-4.3c0-9,0-18,0-27
	c1.9-10.6,3.2-21.3,5.9-31.7C30.4,68.9,88.7,17,159.8,7c3.9-0.6,7.8-1.2,11.8-1.8c9,0,18,0,27,0c10.6,1.9,21.4,3.2,31.8,5.9
	c72.2,18.6,125,80.6,132.4,154.8c0.1,1.4,0.6,2.9,0.9,4.3C363.5,179.2,363.5,188.2,363.5,197.2z M358.5,183.8
	C358.5,88.3,281,10.3,186,10.2C89.7,10.1,11.7,87.4,11.6,182.9c-0.1,96.4,77.3,174.3,173.3,174.3
	C280.8,357.2,358.5,279.5,358.5,183.8z"/>
<g>
	<g>
		<path class="st0" d="M185.7,250.2c-11.9,0-23.5-1.9-34.7-6c-1.3-0.5-2.2-0.4-3.3,0.5c-10.7,8.1-22.6,13.6-35.9,15.8
			c-3.6,0.6-7.2,0.8-10.9,1c-1.3,0-2.4-0.3-3-1.6c-0.6-1.4-0.2-2.4,0.8-3.5c7.3-8.4,13.3-17.7,17.3-28.2c1.4-3.5,0.6-5.7-1.8-8.3
			c-8.6-9.3-14-20.4-15.9-33c-2.7-19,2.9-35.6,15.2-49.9c13.7-15.9,31.4-24.8,51.8-28.9c8-1.6,16.2-2.4,24.4-2
			c22.3,0.9,42.6,7.3,60.1,21.6c10.5,8.6,18.2,19.1,22.4,31.9c4.7,14.2,4,28.3-1.8,42.1c-6.7,15.9-18.4,27.3-33.2,35.7
			c-11.4,6.5-23.7,10.4-36.7,12C195.6,249.9,190.7,250.2,185.7,250.2z"/>
	</g>
</g>
</svg>
