<?xml version="1.0" encoding="utf-8"?>
<!-- Generator: Adobe Illustrator 23.1.0, SVG Export Plug-In . SVG Version: 6.00 Build 0)  -->
<svg version="1.1" id="Layer_1" xmlns="http://www.w3.org/2000/svg" xmlns:xlink="http://www.w3.org/1999/xlink" x="0px" y="0px"
	 viewBox="0 0 366 370" style="enable-background:new 0 0 366 370;" xml:space="preserve">
<style type="text/css">
	.st0{fill:#194F8D;}
</style>
<path class="st0" d="M366.4,198.3c-1.9,10.6-3.2,21.3-5.9,31.7c-18,69.6-76.3,121.5-147.3,131.5c-3.9,0.6-7.8,1.2-11.8,1.8
	c-9,0-18,0-27,0c-10.6-1.9-21.4-3.2-31.8-5.9c-72.2-18.6-125-80.6-132.4-154.8c-0.1-1.4-0.6-2.9-0.9-4.3c0-9,0-18,0-27
	c1.9-10.6,3.2-21.3,5.9-31.7C33.3,70,91.6,18.2,162.6,8.1c3.9-0.6,7.8-1.2,11.8-1.8c9,0,18,0,27,0c10.6,1.9,21.4,3.2,31.8,5.9
	c72.2,18.6,125,80.6,132.4,154.8c0.1,1.4,0.6,2.9,0.9,4.3C366.4,180.3,366.4,189.3,366.4,198.3z M361.4,184.9
	c0-95.4-77.5-173.4-172.5-173.5C92.6,11.3,14.5,88.5,14.4,184c-0.1,96.4,77.3,174.3,173.3,174.3
	C283.6,358.3,361.4,280.7,361.4,184.9z"/>
<g>
	<path class="st0" d="M290.9,111.1c0.1-0.1,0.2-0.1,0.3-0.2C291.1,111,291,111,290.9,111.1L290.9,111.1z"/>
	<g>
		<g>
			<path class="st0" d="M183.7,281.2c-14.5,0-29,0.3-43.5-0.8c-17.4-1.3-32.1-8-42.1-23c-5.1-7.5-7.6-16.1-8.5-25
				c-1.4-14.1-1-28.3-1.1-42.4c0-15.5-0.3-31,0.6-46.4c0.7-10.9,3.1-21.4,9.5-30.5c8-11.4,18.9-18.2,32.5-20.8
				c10.1-2,20.3-1.9,30.4-2c20.3-0.2,40.6-0.3,60.9,0.4c11.4,0.4,22.4,2.6,32.2,8.9c12,7.8,19.2,19,22,33.1
				c1.4,7.1,1.7,14.4,1.8,21.6c0.3,24.4,0.7,48.8-0.4,73.1c-0.5,10.7-2.8,20.9-8.9,30c-8.4,12.5-20.2,19.6-34.9,22.1
				c-9.5,1.6-19.2,1.4-28.8,1.6C198.3,281.3,191,281.2,183.7,281.2z M183.3,264.2c3.8,0,7.6,0,11.4,0c12-0.2,24,0,36-1.6
				c16.1-2.2,26.1-13,28.8-25.7c1.6-7.5,2.1-15.2,2.2-22.8c0.1-14.3,0.1-28.6,0.1-42.9c0-11,0.1-22-1.6-32.9
				c-2.3-15.7-12.6-26.5-27.3-29c-7.9-1.3-15.8-1.9-23.8-2c-12.8-0.1-25.5-0.1-38.3-0.1c-11.9,0-23.9,0-35.7,1.9
				c-13.9,2.2-24.1,11.4-27.2,25.2c-1.8,7.9-2.2,16-2.3,24c-0.2,14-0.1,28-0.2,41.9c0,10.7,0.1,21.5,1.6,32.1
				c2.3,15.7,11.1,26,25.5,29.3c6.4,1.5,12.9,2,19.5,2.2C162.4,264.2,172.9,264.2,183.3,264.2z"/>
			<path class="st0" d="M183.4,234.7c-27-0.1-48.7-22-48.6-48.9c0.1-27.4,21.8-49.1,49-49.1c26.7,0,48.6,22,48.6,48.8
				C232.5,213,210.9,234.7,183.4,234.7z M183.5,217.6c17.7,0,32-14.3,32-32c0-17.4-14.5-31.9-31.7-31.7
				c-17.9,0.2-31.9,14.3-31.9,32.1C151.9,203.1,166.4,217.6,183.5,217.6z"/>
			<path class="st0" d="M245.9,134.7c0,6.3-5.2,11.5-11.4,11.4c-6.2,0-11.3-5.2-11.2-11.6c0-6.6,4.8-11.5,11.3-11.4
				C240.8,123.2,245.9,128.4,245.9,134.7z"/>
		</g>
	</g>
</g>
</svg>
