<?xml version="1.0" encoding="utf-8"?>
<!-- Generator: Adobe Illustrator 23.1.0, SVG Export Plug-In . SVG Version: 6.00 Build 0)  -->
<svg version="1.1" id="Layer_1" xmlns="http://www.w3.org/2000/svg" xmlns:xlink="http://www.w3.org/1999/xlink" x="0px" y="0px"
	 viewBox="0 0 369 365" style="enable-background:new 0 0 369 365;" xml:space="preserve">
<style type="text/css">
	.st0{fill:#194F8D;}
</style>
<path class="st0" d="M362.8,195.8c-1.9,10.6-3.2,21.3-5.9,31.7c-18,69.6-76.3,121.5-147.3,131.5c-3.9,0.6-7.8,1.2-11.8,1.8
	c-9,0-18,0-27,0c-10.6-1.9-21.4-3.2-31.8-5.9C66.9,336.2,14.1,274.2,6.7,200c-0.1-1.4-0.6-2.9-0.9-4.3c0-9,0-18,0-27
	c1.9-10.6,3.2-21.3,5.9-31.7C29.7,67.5,88,15.6,159.1,5.6c3.9-0.6,7.8-1.2,11.8-1.8c9,0,18,0,27,0c10.6,1.9,21.4,3.2,31.8,5.9
	c72.2,18.6,125,80.6,132.4,154.8c0.1,1.4,0.6,2.9,0.9,4.3C362.8,177.8,362.8,186.8,362.8,195.8z M357.8,182.3
	c0-95.4-77.5-173.4-172.5-173.5C89,8.7,10.9,86,10.9,181.4c-0.1,96.4,77.3,174.3,173.3,174.3C280,355.7,357.8,278.1,357.8,182.3z"/>
<g>
	<g>
		<path class="st0" d="M125.9,157c11.8,0,23.4,0,34.8,0c0.8-1.2,0.5-2.2,0.5-3.2c0-8.4-0.1-16.8,0-25.2c0.1-9.7,0.9-19.3,4.8-28.4
			c6.3-14.8,17.4-23.8,33-27.4c11-2.4,22-1.8,33-0.7c3.8,0.4,7.6,0.9,11.5,1.3c1.3,0.2,2.6,0.2,2.6,2.3c-0.1,10.4,0,20.9-0.1,31.3
			c0,0.3-0.1,0.7-0.1,1c-1.2,0.7-2.4,0.3-3.5,0.4c-7.2,0.2-14.4-0.7-21.5,0.9c-10.2,2.3-14.7,9.3-15.3,18.6s-0.1,18.6-0.1,28
			c0,0.2,0.1,0.5,0.2,1.1c12.8,0,25.7,0,38.7,0c-2.1,13.7-4.2,27-6.3,40.5c-10.7,0-21.5,0-32.5,0c0,32.8,0,65.3,0,98.1
			c-14.8,0-29.3,0-44.1,0c0-32.5,0-65.1,0-97.9c-12,0-23.6,0-35.5,0C125.9,184,125.9,170.7,125.9,157z"/>
	</g>
</g>
</svg>
