<?xml version="1.0" encoding="utf-8"?>
<!-- Generator: Adobe Illustrator 23.1.0, SVG Export Plug-In . SVG Version: 6.00 Build 0)  -->
<svg version="1.1" id="Layer_1" xmlns="http://www.w3.org/2000/svg" xmlns:xlink="http://www.w3.org/1999/xlink" x="0px" y="0px"
	 viewBox="0 0 253 382" style="enable-background:new 0 0 253 382;" xml:space="preserve">
<style type="text/css">
	.st0{fill:#FFFFFF;}
</style>
<g>
	<path class="st0" d="M163.1,195.1c-10.9-10.6-21.1-20.3-31.1-30.4C99,131.7,66,98.4,33,65.2c-11.1-11.2-11.1-22.4,0-33.5
		c5.4-5.4,10.8-10.9,16.3-16.2c9.2-9.1,21.5-9.1,30.6,0c54.5,54.4,108.8,108.9,163.5,163.1c10,10,9.5,23.8-0.1,33.3
		C189,265.6,135.1,319.6,81.4,373.8c-10.6,10.7-24.4,10.5-33.9-0.3c-4.5-5.1-9.3-10.1-14.5-14.5c-10.2-8.7-10.8-23.1-0.2-33.6
		c42.1-41.8,83.7-84.1,125.5-126.2C159.4,198.1,160.8,197.1,163.1,195.1z"/>
</g>
</svg>
