<?xml version="1.0" encoding="utf-8"?>
<!-- Generator: Adobe Illustrator 23.1.0, SVG Export Plug-In . SVG Version: 6.00 Build 0)  -->
<svg version="1.1" id="Layer_1" xmlns="http://www.w3.org/2000/svg" xmlns:xlink="http://www.w3.org/1999/xlink" x="0px" y="0px"
	 viewBox="0 0 378 235" style="enable-background:new 0 0 378 235;" xml:space="preserve">
<style type="text/css">
	.st0{fill:#FFFFFF;}
</style>
<g>
	<path class="st0" d="M190.6,139.9c8.6-8.8,16.9-17.5,25.5-26.1c26.2-26.2,52.4-52.2,78.6-78.4c8.1-8.1,16.1-16.4,24-24.7
		c11-11.4,24.8-11.6,35.2-0.2c4.9,5.4,10.4,10.4,15.5,15.6c9.7,9.8,9.9,21.6,0.1,31.4c-23,23.2-46.2,46.2-69.3,69.3
		c-31.4,31.3-62.8,62.6-94.1,93.9c-3.1,3.1-6.3,5.9-10.6,7.1c-7.6,2.1-14.1,0.2-19.6-5.1c-13.1-12.8-26.1-25.8-39-38.7
		C95.3,142.5,53.7,100.9,12.1,59.3C0.3,47.6,0.3,36.5,12,24.7c5.2-5.2,10.3-10.4,15.5-15.6c9.6-9.4,21.4-9.6,31-0.2
		c17.7,17.4,35.2,35,52.8,52.5c25.5,25.4,51,50.8,76.5,76.2C188.5,138.3,189.2,138.7,190.6,139.9z"/>
</g>
</svg>
