<?xml version="1.0" encoding="utf-8"?>
<!-- Generator: Adobe Illustrator 23.1.0, SVG Export Plug-In . SVG Version: 6.00 Build 0)  -->
<svg version="1.1" id="Layer_1" xmlns="http://www.w3.org/2000/svg" xmlns:xlink="http://www.w3.org/1999/xlink" x="0px" y="0px"
	 viewBox="0 0 385 252" style="enable-background:new 0 0 385 252;" xml:space="preserve">
<style type="text/css">
	.st0{fill:#FFFFFF;}
</style>
<g>
	<path class="st0" d="M195.5,104.6c-18.4,18.6-36.3,37-54.5,55.1c-25.1,25.1-50.2,50.2-75.4,75.2c-10.5,10.4-21.4,10.5-32,0.3
		c-5.5-5.3-11-10.7-16.4-16.1c-10.5-10.6-10.6-22.2,0.1-32.9c32.2-32.3,64.6-64.6,96.8-96.9C135.5,67.9,157,46.4,178.5,25
		c12.1-12,23-12.1,35-0.2c53.7,53.8,107.4,107.5,161.2,161.3c10.9,10.9,10.9,22.4,0,33.1c-5.2,5.2-10.5,10.3-15.6,15.5
		c-10.5,10.5-21.9,10.7-32.4,0.3c-17.2-17.1-34.4-34.2-51.6-51.3c-25.4-25.3-50.7-50.6-76.1-75.9C198,107,197.2,106.2,195.5,104.6z"
		/>
</g>
</svg>
