<?xml version="1.0" encoding="utf-8"?>
<!-- Generator: Adobe Illustrator 23.1.0, SVG Export Plug-In . SVG Version: 6.00 Build 0)  -->
<svg version="1.1" id="Layer_1" xmlns="http://www.w3.org/2000/svg" xmlns:xlink="http://www.w3.org/1999/xlink" x="0px" y="0px"
	 viewBox="0 0 395 347" style="enable-background:new 0 0 395 347;" xml:space="preserve">
<style type="text/css">
	.st0{fill:#194F8D;}
</style>
<g>
	<path class="st0" d="M198.7,339.9c-58,0-116,0-174,0c-12.2,0-16.9-4.7-16.9-16.9c0-9.3,0-18.7,0-28C7.9,283,12.9,278,25,278
		c38.8,0,77.7,0,116.5,0c77.2,0,154.3,0,231.5,0c6.2,0,12,0.8,15.6,6.8c1.5,2.5,2.1,5.2,2.1,8.1c0,10.7,0.1,21.3,0,32
		c-0.1,9.7-5.6,15-15.4,15C316.4,339.9,257.6,339.9,198.7,339.9C198.7,339.9,198.7,339.9,198.7,339.9z"/>
	<path class="st0" d="M198.3,202.9c-58.3,0-116.6-0.2-175,0.2c-9.6,0.1-16.1-6.8-15.7-15.4c0.4-9.6,0-19.3,0-29
		c0-12.6,4.6-17.2,17.2-17.2c110,0,219.9,0,329.9,0c6.5,0,13-0.1,19.5,0c11.5,0.1,16.3,4.9,16.3,16.5c0,9.5,0,19,0,28.5
		c0,11.6-4.8,16.4-16.4,16.4C315.6,202.9,257,202.9,198.3,202.9C198.3,202.9,198.3,202.9,198.3,202.9z"/>
	<path class="st0" d="M199.7,4.7c57.8,0,115.7,0,173.5,0c2.3,0,4.7-0.1,7,0.3c6.1,1.1,10.3,6.4,10.4,13.4c0.2,10.8,0.1,21.7,0,32.5
		c-0.1,10-5.1,15-15.2,15c-37.8,0-75.7,0-113.5,0c-78.7,0-157.3,0-236,0c-1.7,0-3.3,0-5-0.1c-7.5-0.4-12.8-5.1-13-12.5
		c-0.3-12-0.3-24,0-36C8.2,9.1,13.8,4.7,23.3,4.7c40.3,0,80.7,0,121,0C162.7,4.7,181.2,4.7,199.7,4.7C199.7,4.7,199.7,4.7,199.7,4.7
		z"/>
</g>
</svg>
