<?xml version="1.0" encoding="utf-8"?>
<!-- Generator: Adobe Illustrator 23.1.0, SVG Export Plug-In . SVG Version: 6.00 Build 0)  -->
<svg version="1.1" id="Layer_1" xmlns="http://www.w3.org/2000/svg" xmlns:xlink="http://www.w3.org/1999/xlink" x="0px" y="0px"
	 viewBox="0 0 495 405" style="enable-background:new 0 0 495 405;" xml:space="preserve">
<style type="text/css">
	.st0{fill:#FBB05D;}
	.st1{fill:#FFFFFF;}
	.st2{fill:#E47603;}
</style>
<g>
	<path class="st0" d="M176,339.2c-3,0-4.8,0-6.5,0c-42.2,0-84.3,0-126.5,0c-25.7,0-42.9-17.2-42.9-42.9c0-86.7,0-173.3,0-260
		c0-25.6,17.3-43,42.9-43c132.7,0,265.3,0,398,0c25.7,0,43,17.4,43,43c0,86.7,0,173.3,0,260c0,25.7-17.2,42.9-42.9,42.9
		c-42.2,0-84.3,0-126.5,0c-1.8,0-3.6,0-6.4,0c2.2,3.3,3.8,5.8,5.5,8.4c5.5,8.1,11.1,16.2,16.5,24.4c1.4,2.2,3,3,5.7,3
		c9.3-0.2,18.7-0.1,28-0.1c5.7,0,9.2,3.1,9,7.7c-0.1,4.5-3.5,7.3-8.9,7.3c-81.3,0-162.6,0-244,0c-5.6,0-9.1-3.2-9-7.8
		c0.2-4.4,3.5-7.2,9-7.2c9.3,0,18.7,0,28,0c1.8,0,3.5,0.3,4.8-1.6C160.3,362.2,167.8,351.3,176,339.2z M468.9,262.9
		c0-2.2,0-3.9,0-5.5c0-73.6,0-147.3,0-220.9c0-17.4-10.5-28-28-28c-132.6,0-265.2,0-397.9,0c-17.4,0-28,10.6-28,28.1
		c0,73.6,0,147.3,0,220.9c0,1.8-0.5,3.6,0.6,5.5C166.6,262.9,317.5,262.9,468.9,262.9z M15.2,278.2c0,8-0.5,15.5,0.1,22.9
		c0.8,10.9,8.7,19.6,19.2,22.4c3.1,0.8,6.3,0.7,9.4,0.7c87.6,0,175.3,0,262.9,0c45,0,90,0,134.9,0c12.3,0,21.6-5.8,25.4-16.5
		c3.5-9.6,1.4-19.6,1.6-29.5C317.3,278.2,166.6,278.2,15.2,278.2z M170,374.7c48.3,0,95.7,0,143.9,0c-7.4-10.9-14.7-21.3-21.5-31.8
		c-1.9-2.9-4-3.8-7.3-3.8c-26,0.1-51.9,0.6-77.9-0.2c-9.8-0.3-15.9,2.2-20.6,11C182,358.5,175.8,366.1,170,374.7z"/>
</g>
<path class="st1" d="M468.9,262.9c-151.5,0-302.3,0-453.2,0c-1.1-1.9-0.6-3.7-0.6-5.5c0-73.6,0-147.3,0-220.9
	C15.1,19,25.6,8.4,43,8.4c132.6,0,265.2,0,397.9,0c17.5,0,28,10.6,28,28c0,73.6,0,147.3,0,220.9C468.9,259,468.9,260.6,468.9,262.9z
	"/>
<path class="st2" d="M15.2,278.2c151.4,0,302.2,0,453.6,0c-0.3,9.9,1.8,19.9-1.6,29.5c-3.8,10.6-13.1,16.5-25.4,16.5
	c-45,0-90,0-134.9,0c-87.6,0-175.3,0-262.9,0c-3.2,0-6.3,0.1-9.4-0.7C24,320.8,16.1,312,15.3,301.1
	C14.7,293.7,15.2,286.2,15.2,278.2z M438.1,301.1c0.1-6-4.7-10.9-10.6-10.9c-5.7,0-10.4,4.8-10.5,10.5c-0.1,5.9,4.7,10.8,10.7,10.8
	C433.3,311.6,438,306.9,438.1,301.1z"/>
<path class="st1" d="M170,374.7c5.8-8.5,12-16.2,16.6-24.7c4.7-8.8,10.9-11.3,20.6-11c25.9,0.8,51.9,0.3,77.9,0.2
	c3.3,0,5.4,0.8,7.3,3.8c6.9,10.5,14.1,20.9,21.5,31.8C265.7,374.7,218.3,374.7,170,374.7z"/>
<path class="st0" d="M438.1,301.1c-0.1,5.8-4.8,10.5-10.4,10.5c-6,0-10.7-4.9-10.7-10.8c0.1-5.7,4.9-10.4,10.5-10.5
	C433.4,290.2,438.2,295.1,438.1,301.1z"/>
</svg>
