<?xml version="1.0" encoding="utf-8"?>
<!-- Generator: Adobe Illustrator 23.1.0, SVG Export Plug-In . SVG Version: 6.00 Build 0)  -->
<svg version="1.1" id="Layer_1" xmlns="http://www.w3.org/2000/svg" xmlns:xlink="http://www.w3.org/1999/xlink" x="0px" y="0px"
	 viewBox="0 0 50.1 46.1" style="enable-background:new 0 0 50.1 46.1;" xml:space="preserve">
<style type="text/css">
	.st0{fill:#E47603;}
	.st1{fill:#FBB05D;}
</style>
<g>
	<path class="st0" d="M16.3,19.1c1.6-4.2,1.7-8.8,4.1-12.7c1-1.7,1.9-3.6,4.6-4.5c3.8,5.5,4.3,12.2,5.7,19.2
		C36.1,16,40.3,8.8,49.8,11c-3.3,13.1-9.3,23.8-20.5,31.1c-3.7,2.4-7.2,2.8-10.9,0c1.4-0.8,2.9-1.6,1.8-3.7
		C16.9,32.4,17.6,25.6,16.3,19.1z"/>
	<path class="st1" d="M16.3,19.1c1.3,6.4,0.5,13.3,3.9,19.3c1.1,2-0.3,2.9-1.8,3.7c-5.9-3-8.9-8.6-12.2-13.8
		c-2.4-3.8-3.7-8.2-4.7-12.5c-0.7-3-0.5-5.9,2.9-7.6C8.5,11.7,13,14.7,16.3,19.1z"/>
</g>
</svg>
