<?xml version="1.0" encoding="utf-8"?>
<!-- Generator: Adobe Illustrator 23.1.0, SVG Export Plug-In . SVG Version: 6.00 Build 0)  -->
<svg version="1.1" id="Layer_1" xmlns="http://www.w3.org/2000/svg" xmlns:xlink="http://www.w3.org/1999/xlink" x="0px" y="0px"
	 viewBox="0 0 111 131" style="enable-background:new 0 0 111 131;" xml:space="preserve">
<style type="text/css">
	.st0{fill:#E47603;}
	.st1{fill:#FBB05D;}
	.st2{fill:#FFFFFF;}
</style>
<g>
	<path class="st0" d="M8,66v50l32,10c0,0,40,5,65-12l1-48L74,76l-32,1L8,66z"/>
	<path class="st1" d="M57,96c0,0-5-3-9-11L27,47c0,0-8-19,9-34s39-4,40-1s17,9,11,34C87,46,60,98,57,96z"/>
	<path class="st2" d="M57,14c-12.2,0-22,9.8-22,22s9.8,22,22,22s22-9.8,22-22S69.2,14,57,14z M57,48c-6.6,0-12-5.4-12-12
		c0-6.6,5.4-12,12-12s12,5.4,12,12C69,42.6,63.6,48,57,48z"/>
	<circle class="st1" cx="57" cy="36" r="12"/>
	<path class="st1" d="M75.7,11.5c0,0,8.8,5.9,10.6,13.2"/>
	<polygon class="st1" points="77.8,14 77,13 76.5,12 75,11 76,14 	"/>
</g>
</svg>
