<?xml version="1.0" encoding="utf-8"?>
<!-- Generator: Adobe Illustrator 23.1.0, SVG Export Plug-In . SVG Version: 6.00 Build 0)  -->
<svg version="1.1" xmlns="http://www.w3.org/2000/svg" xmlns:xlink="http://www.w3.org/1999/xlink" x="0px" y="0px"
	 viewBox="0 0 338.6 342.4" style="enable-background:new 0 0 338.6 342.4;" xml:space="preserve">
<style type="text/css">
	.st0{fill:#E47603;}
	.st1{fill:#FFFFFF;}
	.st2{fill:#124C7C;}
</style>
<g id="Layer_1">
	<circle class="st0" cx="169" cy="119.2" r="55"/>
	<path class="st0" d="M9,186.2c0-11.3,0-22.7,0-34c1.8-1.6,1.4-4,1.7-6C20.7,79.5,68.8,28,134.7,12.9c5.8-1.3,11.8-1,17.3-3.7
		c11,0,22,0,33,0c0.8,1.5,2.3,1,3.6,1.1c69.5,9.8,121.6,57.6,137,125.5c1.3,5.8,1.1,11.8,3.4,17.4c0,11,0,22,0,33
		c-1.8,1.6-1.4,4-1.7,6c-9.9,66.3-58.3,118.4-123.5,133.2c-6.2,1.4-12.8,1.5-18.8,3.8c-11,0-22,0-33,0c-2-1.9-4.6-1.4-7-1.8
		c-34.1-5.3-63.5-20-88.1-44.1c0.4-0.5,0.8-1,1.2-1.4c7.8-2.9,15.5-5.9,23.4-8.5c9.3-3,18.7-6.5,28.6-6.5c20.5,0,41,0.7,61.4,3.1
		c6,0.7,11.5-0.2,16.8-3.2c6.2-3.5,12.5-6.9,18.9-10.3c23-12.2,46.2-23.7,69.7-34.7c6.1-2.9,8.8-8.5,6.8-14.3
		c-2-5.8-8.1-9.4-13.9-7.8c-22.1,6.4-44.1,12.9-66.1,19.4c-0.6,0.2-1.1,0.5-1.6,0.8c0.2,19.5-7.8,26.5-27.2,24.7
		c-14.1-1.3-28.2-2.2-42.3-3.4c-1.5-0.1-3.3,0.6-4.4-1.2c6.8-5.1,9.9-6,17.5-5.5c11.6,0.7,23.3,1.4,34.9,2c8,0.4,13.6-3.8,14.3-10.7
		c0.7-6.8-4.2-12.3-11.9-13.5c-25.2-3.7-50.4-7.2-75.6-11c-11.3-1.7-21.1,0.4-30.4,7.5c-16,12.2-34.8,19.3-53.6,26.6
		c-4.8-9.9-7.8-20.1-10.4-30.4C11.4,198.8,11.7,192.2,9,186.2z M168.9,174.2c30.5,0,55.1-24.5,55.1-54.9c0-30.5-24.5-55.1-54.9-55.1
		c-30.5,0-55.1,24.4-55.1,54.9C114,149.6,138.5,174.2,168.9,174.2z"/>
	<path class="st1" d="M168.9,174.2c-30.4,0-54.9-24.6-54.9-55.1c0-30.4,24.6-54.9,55.1-54.9c30.4,0,54.9,24.6,54.9,55.1
		C224,149.7,199.3,174.2,168.9,174.2z M199.7,97.4c-7.3-1.5-7.5-1.4-8.9,4.8c-0.4,1.8-1,3.5-1.2,5.4c-0.3,3.8-2.3,4.5-5.9,4.8
		c-5.1,0.4-7.3-1.6-7.7-6.4c-0.1-1.5-0.7-2.9-0.9-4.4c-0.4-3.1-1.2-5.1-5.1-5.1c-4-0.1-5.2,1.9-5.8,5.1c-0.5,2.6-1.4,5.1-1.9,7.7
		c-0.4,1.9-1.3,2.7-3.3,2.9c-8.1,0.7-8.2,0.7-10.1-7.5c-0.2-0.8-0.4-1.6-0.6-2.4c-1.5-6.4-2.3-6.8-8.9-4.6c1.1,4.6,2.2,9.3,3.4,14.2
		c-2.8,0.2-5.2,0.4-7.7,0.5c-0.9,2.4-1,4.6,0.1,7c1.3,0.1,2.7,0.4,3.9,0.3c4.5-0.7,6.6,1.1,7.4,5.6c1.1,6,3.1,11.9,4.5,17.9
		c0.7,2.9,2.2,3.6,5,3.5c2.6,0,3.8-0.9,4.4-3.5c1.4-6.5,3.1-12.9,4.6-19.4c0.6-2.5,1.4-4.2,4.5-4.2c3,0,4,1.5,4.6,4.1
		c1.4,6.3,3.1,12.6,4.4,18.9c0.6,2.9,1.8,4.2,5,4.2c3,0,4-1.3,4.6-4c1-4.7,2.4-9.3,3.6-14c2.2-8.5,2.2-8.5,10.5-9.4
		c0.3,0,0.5-0.3,1.1-0.7c0.2-1.9,0.6-4-0.3-6.3c-2.1-0.2-4.2-0.3-6.7-0.6C197.4,106.9,198.5,102.2,199.7,97.4z"/>
	<path class="st1" d="M186.9,120.1c-1.1,4.7-2.1,8.8-3.4,14.3c-1.3-5.4-2.3-9.4-3.3-13.6C182.1,119,184.2,119.8,186.9,120.1z"/>
	<path class="st1" d="M153,120.3c2.2-0.8,3.8-0.8,5.7-0.1c0.3,4.1-1.4,7.9-2.5,13.1C154.3,128.4,153.4,124.5,153,120.3z"/>
</g>
<g id="Layer_2">
	<path class="st2" d="M-301,543.2"/>
</g>
</svg>
