<?xml version="1.0" encoding="utf-8"?>
<!-- Generator: Adobe Illustrator 23.1.0, SVG Export Plug-In . SVG Version: 6.00 Build 0)  -->
<svg version="1.1" id="Layer_1" xmlns="http://www.w3.org/2000/svg" xmlns:xlink="http://www.w3.org/1999/xlink" x="0px" y="0px"
	 viewBox="0 0 286 247" style="enable-background:new 0 0 286 247;" xml:space="preserve">
<style type="text/css">
	.st0{fill:#FBB05D;}
	.st1{fill:#E47603;}
	.st2{fill:#EFB950;}
</style>
<path class="st0" d="M131.6,182.3c-0.5-0.2-1-0.3-1.6-0.5c-1.9-3.1-5-3.6-8.3-3.4h-0.1c-1.2-2.6-3.5-2.5-5.8-2.3l0,0
	c-2.3-3.3-5.7-3.6-9.3-3.5c0,0-0.4-0.3-0.3-0.3c0.6-1.8,1.1-3.6,1.7-5.5c0-31.5,0.1-63.1,0.1-94.6c0-1.6,0.3-3.4-1.3-4.6
	c-0.4-0.9-0.8-1.9-1.2-2.8c0.6-1.9,2.2-2.3,3.8-2.9C154.6,44.4,199.9,26.7,245.1,9c2.6-1,5.3-2.1,7.9-3.1c6.1-2.3,8.5-0.6,8.5,6.2
	c0,22.8,0,45.7,0,68.5c0,3-0.1,6-0.1,9c-0.2,0.5-0.4,1-0.6,1.5c-1,0.9-0.8,2.1-0.8,3.2c0,15.8,0,31.6,0,47.3c0,1.1-0.2,2.4,0.8,3.3
	c0.2,0.5,0.4,1,0.7,1.5c0,25.8,0.1,51.5,0,77.3c0,6.9-2.3,8.5-8.7,6c-19.1-7.4-38.1-14.9-57.1-22.3c-0.3-1.3-1-1.4-2-0.8l-0.3-0.1
	c0-1.6-1.3-1.8-2.3-2.2c-13.9-5.4-27.8-10.9-41.7-16.2C143.6,185.9,138.1,182.7,131.6,182.3z"/>
<path class="st1" d="M26.9,67.8c2.9-4.5,7.7-4.8,12.2-5.7c1,1.2,2.4,0.8,3.7,0.8c19.4,0,38.9,0,58.3,0l-0.1-0.1
	c0.4,1.1,1.2,1.1,2.1,1.1v-0.2c-0.1,3.1,2.8,5,2.8,8.3c-0.2,31.9-0.2,63.8-0.3,95.7c-1.7,1.7-4,2.7-4.5,5.4C96.5,176,91,174,86,175
	c-13.3,0-26.6,0-39.9,0c-4.8-1.3-9.8-1.4-14.3-3.5c-10.2-4.7-17.8-11.9-22-22.4c1.6-1.1,1.1-2.5,0.7-4c-0.7-3.2-1.6-6.4-1.6-9.8
	c0-12.1-0.2-24.3,0.1-36.4c0.2-8.9,3.6-16.6,9.9-23.2C21.5,73,25.1,71.3,26.9,67.8z"/>
<path class="st1" d="M46.1,175c13.3,0,26.6,0,39.9,0c0,20.6-0.1,41.2,0.1,61.8c0,4.6-1.5,6.8-6.3,6.7c-9.3-0.2-18.6-0.1-27.9,0
	c-4.3,0-5.9-2-5.9-6.2C46.1,216.6,46.1,195.8,46.1,175z"/>
<path class="st1" d="M263.2,91.6c7.9,2,12.1,7.9,15,14.8c5.4,12.6,1.5,27.1-9.2,35.5c-1.4,1.1-2.7,2.5-4.8,2.3
	c-1.8-1.6-1.1-3.7-1.1-5.6c-0.1-13.1,0-26.3-0.1-39.4c0-1.8,0.6-3.7-1-5.2c-0.1-0.6-0.2-1.2-0.4-1.8
	C262.1,91.9,262.7,91.7,263.2,91.6z"/>
<path class="st1" d="M26.9,67.8c-1.8,3.5-5.4,5.2-8,7.9C12.6,82.3,9.2,90,9,98.9c-0.3,12.1,0,24.3-0.1,36.4c0,3.4,0.9,6.5,1.6,9.8
	c0.3,1.5,0.9,2.9-0.7,4c-2-3.7-2.7-7.7-2.7-11.8c-0.1-13-0.5-26,0.1-38.9C7.7,86,13.7,76.1,23.6,68.6C24.7,67.8,25.8,67.9,26.9,67.8
	z"/>
<path class="st0" d="M131.6,182.3c6.4,0.3,12,3.5,17.8,5.8c13.9,5.3,27.8,10.8,41.7,16.2c1,0.4,2.4,0.6,2.3,2.2
	c-8.6-1.9-16.6-5.9-24.8-8.9c-11.8-4.3-23.4-9.1-35.1-13.8C132.9,183.5,132.3,182.8,131.6,182.3z"/>
<path class="st1" d="M101.1,62.9c-19.4,0-38.9,0-58.3,0c-1.3,0-2.7,0.4-3.7-0.8c18.2-2.3,36.5-0.6,54.7-1.1
	C96.4,61,98.8,61.8,101.1,62.9z"/>
<path class="st1" d="M105.8,167.7c0.1-31.9,0.1-63.8,0.3-95.7c0-3.3-2.8-5.2-2.8-8.3c0.8,0.4,1.5,0.8,2.3,1.3
	c0.4,0.9,0.8,1.9,1.3,2.8c0.1,2.3,0.3,4.6,0.3,7c0,30.7,0,61.4,0,92.2c-0.3,0.4-0.6,0.8-0.9,1.2C106,168,105.9,167.9,105.8,167.7z"
	/>
<path class="st1" d="M262,93.9c1.6,1.5,1,3.4,1,5.2c0,13.1,0,26.3,0.1,39.4c0,1.9-0.7,4,1.1,5.6c-0.5,0.4-0.9,0.8-1.4,1.3
	c-0.4-0.5-0.8-0.9-1.2-1.4c0.1-1.8,0.2-3.6,0.2-5.4C261.8,123.6,261.9,108.8,262,93.9z"/>
<path class="st0" d="M106.6,172.7c3.6-0.1,7,0.1,9.3,3.5C112.6,175.7,109.4,174.8,106.6,172.7z"/>
<path class="st0" d="M121.8,178.4c3.3-0.2,6.3,0.2,8.3,3.4C127,181.6,124.3,180.1,121.8,178.4z"/>
<path class="st1" d="M101.3,173.1c0.5-2.7,2.8-3.7,4.5-5.4c0.1,0.1,0.2,0.3,0.4,0.4c-0.5,1.1-0.9,2.3-1.4,3.4
	C103.6,172.1,102.4,172.6,101.3,173.1z"/>
<path class="st0" d="M104.7,171.5c0.5-1.1,0.9-2.3,1.4-3.4c0.3-0.4,0.6-0.8,0.9-1.2c0.3,0,0.6,0,0.9,0c-0.6,1.8-1.1,3.6-1.7,5.5
	C105.8,172.1,105.2,171.8,104.7,171.5z"/>
<path class="st0" d="M115.9,176.1c2.3-0.2,4.6-0.3,5.8,2.3C119.5,178.3,117.4,177.8,115.9,176.1z"/>
<path class="st0" d="M263.2,91.6c-0.5,0.2-1,0.3-1.6,0.5c-0.3-0.3-0.5-0.6-0.8-1c0.2-0.5,0.4-1,0.6-1.5
	C262.3,90,263.3,90.3,263.2,91.6z"/>
<path class="st0" d="M261.5,143.9c0.4,0.5,0.8,0.9,1.2,1.4c-0.4,0.4-0.9,0.7-1.3,1.1c-0.2-0.5-0.4-1-0.7-1.5
	C261.1,144.6,261.3,144.3,261.5,143.9z"/>
<path class="st1" d="M103.2,63.9c-0.9,0-1.8,0-2.1-1.1C101.9,63,102.9,62.8,103.2,63.9z"/>
<path class="st2" d="M193.8,206.6c1-0.5,1.7-0.4,2,0.8C195.1,207.1,194.4,206.9,193.8,206.6z"/>
<path class="st0" d="M261.5,143.9c-0.2,0.3-0.5,0.7-0.7,1c-1-0.9-0.8-2.1-0.8-3.3c0-15.8,0-31.6,0-47.3c0-1.1-0.2-2.4,0.8-3.2
	c0.3,0.3,0.5,0.6,0.8,1c0.1,0.6,0.2,1.2,0.4,1.9c-0.1,14.9-0.1,29.7-0.2,44.6C261.7,140.3,261.6,142.1,261.5,143.9z"/>
<path class="st0" d="M108,167c-0.3,0-0.6,0-0.9,0c0-30.7,0-61.4,0-92.2c0-2.3-0.2-4.6-0.3-7c1.6,1.2,1.3,2.9,1.3,4.6
	C108.1,103.9,108,135.4,108,167z"/>
</svg>
