<?xml version="1.0" encoding="utf-8"?>
<!-- Generator: Adobe Illustrator 23.1.0, SVG Export Plug-In . SVG Version: 6.00 Build 0)  -->
<svg version="1.1" id="Layer_1" xmlns="http://www.w3.org/2000/svg" xmlns:xlink="http://www.w3.org/1999/xlink" x="0px" y="0px"
	 viewBox="0 0 368 363" style="enable-background:new 0 0 368 363;" xml:space="preserve">
<style type="text/css">
	.st0{fill:#BD4BDA;}
</style>
<g>
	<path d="M363,192c-1.9,10.6-3.2,21.3-5.9,31.7c-18,69.6-76.3,121.5-147.3,131.5c-3.9,0.6-7.8,1.2-11.8,1.8c-9,0-18,0-27,0
		c-10.6-1.9-21.4-3.2-31.8-5.9c-72.2-18.6-125-80.6-132.4-154.8c-0.1-1.4-0.6-2.9-0.9-4.3c0-9,0-18,0-27c1.9-10.6,3.2-21.3,5.9-31.7
		C29.9,63.7,88.2,11.8,159.3,1.8c3.9-0.6,7.8-1.2,11.8-1.8c9,0,18,0,27,0c10.6,1.9,21.4,3.2,31.8,5.9
		c72.2,18.6,125,80.6,132.4,154.8c0.1,1.4,0.6,2.9,0.9,4.3C363,174,363,183,363,192z M358,178.6C358,83.1,280.5,5.1,185.5,5
		C89.2,4.9,11.1,82.2,11.1,177.7C11,274.1,88.4,352,184.3,352C280.2,352,358,274.3,358,178.6z"/>
	<g>
		<path class="st0" d="M283.7,117.3c-0.7,2.1-2.3,3.7-3.7,5.4c-4.4,5.1-9.2,9.9-14.5,14.1c-1,0.7-1.5,1.5-1.4,2.8
			c0.6,22.7-5.2,43.9-16.5,63.5c-10.8,18.7-25.8,33.3-45,43.4c-14.1,7.4-29.1,11.4-45,12.7c-22.6,1.7-43.9-2.7-64-13
			c-2.7-1.4-5.2-3-8.3-4.9c22.6,1.8,42.6-3.5,60.4-17c-18.6-1.3-31.1-10.6-38.3-28.3c6.4,0.8,12.3,0.7,18.3-1
			c-21.3-5-33.1-23.1-32.3-40.4c5.6,2.8,11.4,4.8,18.2,5.1c-8.9-6.5-14.7-14.6-17-24.9c-2.3-10.3-0.9-20.1,4.5-29.8
			c10.6,13,23.1,23,37.7,30.4c14.5,7.4,29.9,11.6,46.6,12.3c-0.8-4-1-8.1-0.8-12.1c0.6-10.4,4.8-19.2,12.2-26.4
			c9-8.7,20-12.5,32.4-11.4c9.2,0.8,17.3,4.4,24,10.9c1.4,1.4,2.6,1.8,4.6,1.2c7.4-2,14.6-4.5,21.4-8.3c0.4-0.3,0.9-0.5,1.8-0.9
			c-3.2,9.5-8.9,16.5-17.4,22.1c4.5-0.1,8.2-1.1,11.8-2.2C276.7,119.6,280.2,118.4,283.7,117.3L283.7,117.3z"/>
		<path class="st0" d="M283.6,117.3c0-0.1,0.1-0.1,0.1-0.2c0,0.1,0.1,0.1,0.1,0.2C283.8,117.3,283.7,117.3,283.6,117.3
			C283.7,117.3,283.6,117.3,283.6,117.3z"/>
	</g>
</g>
</svg>
