<?xml version="1.0" encoding="utf-8"?>
<!-- Generator: Adobe Illustrator 23.1.0, SVG Export Plug-In . SVG Version: 6.00 Build 0)  -->
<svg version="1.1" id="Layer_1" xmlns="http://www.w3.org/2000/svg" xmlns:xlink="http://www.w3.org/1999/xlink" x="0px" y="0px"
	 viewBox="0 0 448 445" style="enable-background:new 0 0 448 445;" xml:space="preserve">
<style type="text/css">
	.st0{fill:#194F8D;}
</style>
<g>
	<path class="st0" d="M292.7,325.5c-83.8,63.5-191.2,41-247.1-27.3C-10.7,229.3-9.5,126.9,57.1,59.8c60.7-61.1,155.6-69.6,226.4-21
		c41.8,28.7,66.9,68.8,74.8,119c7.9,50.2-4.4,95.7-35.1,137.1c4.9,0,8.9,0.1,13,0c6.4-0.1,11.7,2.1,16.2,6.6
		c20,20,40,40.1,60.1,60.1c7.4,7.4,15,14.7,22.4,22.1c10.6,10.8,10.6,22.4-0.1,33.3c-7,7.1-14.3,14-21.2,21.2
		c-8.6,9.1-21.7,9.2-30.6,0.3c-28.1-28.2-56.3-56.3-84.4-84.5c-3.8-3.8-5.9-8.4-5.8-13.9C292.8,335.5,292.7,330.8,292.7,325.5z
		 M73.8,184.8c-0.3,60.5,48,109.5,108.6,110c60.3,0.5,109.5-48.4,109.9-109.3c0.4-60.3-48.3-109.3-108.9-109.6
		C121.2,75.6,73.3,126.8,73.8,184.8z"/>
</g>
</svg>
