<?xml version="1.0" encoding="utf-8"?>
<!-- Generator: Adobe Illustrator 23.1.0, SVG Export Plug-In . SVG Version: 6.00 Build 0)  -->
<svg version="1.1" id="Layer_1" xmlns="http://www.w3.org/2000/svg" xmlns:xlink="http://www.w3.org/1999/xlink" x="0px" y="0px"
	 viewBox="0 0 364 363" style="enable-background:new 0 0 364 363;" xml:space="preserve">
<style type="text/css">
	.st0{fill:#FFFFFF;}
	.st1{fill:#194F8D;}
</style>
<path class="st0" d="M7,171C7,116.1,7,61.2,7,6c55,0,110,0,165,0c-3.9,0.6-7.8,1.3-11.8,1.8C89.2,17.8,30.9,69.7,12.9,139.3
	C10.2,149.7,8.9,160.4,7,171z"/>
<path class="st0" d="M199,6c55,0,110,0,165,0c0,55,0,110,0,165c-0.3-1.4-0.7-2.8-0.9-4.3c-7.3-74.2-60.2-136.1-132.4-154.8
	C220.4,9.2,209.6,7.9,199,6z"/>
<path class="st0" d="M172,363c-54.9,0-109.8,0-165,0c0-55,0-110,0-165c0.3,1.4,0.7,2.8,0.9,4.3c7.3,74.2,60.2,136.2,132.4,154.8
	C150.6,359.8,161.4,361.1,172,363z"/>
<path class="st0" d="M364,198c0,54.9,0,109.8,0,165c-55,0-110,0-165,0c3.9-0.6,7.8-1.3,11.8-1.8c71.1-10,129.4-61.9,147.3-131.5
	C360.8,219.3,362.1,208.6,364,198z"/>
<path class="st1" d="M364,198c-1.9,10.6-3.2,21.3-5.9,31.7c-18,69.6-76.3,121.5-147.3,131.5c-3.9,0.6-7.8,1.2-11.8,1.8
	c-9,0-18,0-27,0c-10.6-1.9-21.4-3.2-31.8-5.9c-72.2-18.6-125-80.6-132.4-154.8c-0.1-1.4-0.6-2.9-0.9-4.3c0-9,0-18,0-27
	c1.9-10.6,3.2-21.3,5.9-31.7C30.9,69.7,89.2,17.8,160.2,7.8c3.9-0.6,7.8-1.2,11.8-1.8c9,0,18,0,27,0c10.6,1.9,21.4,3.2,31.8,5.9
	c72.2,18.6,125,80.6,132.4,154.8c0.1,1.4,0.6,2.9,0.9,4.3C364,180,364,189,364,198z M359,184.6C359,89.1,281.4,11.1,186.4,11
	C90.2,10.9,12.1,88.2,12,183.7C12,280.1,89.4,358,185.3,358C281.2,358,359,280.3,359,184.6z"/>
<path class="st0" d="M359,184.6c0,95.8-77.8,173.4-173.7,173.4C89.4,358,12,280.1,12,183.7C12.1,88.2,90.2,10.9,186.4,11
	C281.4,11.1,359,89.1,359,184.6z M185.2,270.4c29.5-0.1,55.3-7.3,77.5-25.2c40.2-32.3,42.7-84,6.1-118.8
	c-42.8-40.7-120.1-41-163.1-0.6c-14.2,13.3-23.5,29.4-25.7,48.9c-2.7,23.1,5,42.9,20.3,60c2.3,2.6,2.8,4.8,1.6,8
	c-4.4,12.2-11.2,23-19.3,33c-1.4,1.7-1.8,4.3-2.6,6.5c2.3,0.6,4.6,1.8,6.8,1.7c18.6-0.9,35.4-7.2,50.5-18.1c3.3-2.4,6.2-3,10.1-1.6
	C160,268.6,173.1,270.6,185.2,270.4z"/>
<path class="st1" d="M185.2,270.4c-12.1,0.2-25.3-1.8-37.9-6.3c-3.9-1.4-6.8-0.8-10.1,1.6c-15,10.9-31.8,17.3-50.5,18.1
	c-2.2,0.1-4.5-1.1-6.8-1.7c0.8-2.2,1.2-4.7,2.6-6.5c8.1-10,14.9-20.8,19.3-33c1.2-3.2,0.7-5.4-1.6-8c-15.3-17.1-23-36.9-20.3-60
	c2.2-19.5,11.5-35.6,25.7-48.9c43-40.4,120.4-40,163.1,0.6c36.6,34.8,34,86.5-6.1,118.8C240.6,263.1,214.7,270.3,185.2,270.4z"/>
</svg>
