<?xml version="1.0" encoding="utf-8"?>
<!-- Generator: Adobe Illustrator 23.1.0, SVG Export Plug-In . SVG Version: 6.00 Build 0)  -->
<svg version="1.1" id="Layer_1" xmlns="http://www.w3.org/2000/svg" xmlns:xlink="http://www.w3.org/1999/xlink" x="0px" y="0px"
	 viewBox="0 0 375 372" style="enable-background:new 0 0 375 372;" xml:space="preserve">
<style type="text/css">
	.st0{fill:#194F8D;}
</style>
<path class="st0" d="M365.8,199.5c-1.9,10.6-3.2,21.3-5.9,31.7c-18,69.6-76.3,121.5-147.3,131.5c-3.9,0.6-7.8,1.2-11.8,1.8
	c-9,0-18,0-27,0c-10.6-1.9-21.4-3.2-31.8-5.9C69.9,339.9,17.1,278,9.7,203.8c-0.1-1.4-0.6-2.9-0.9-4.3c0-9,0-18,0-27
	c1.9-10.6,3.2-21.3,5.9-31.7C32.7,71.2,91,19.3,162.1,9.3c3.9-0.6,7.8-1.2,11.8-1.8c9,0,18,0,27,0c10.6,1.9,21.4,3.2,31.8,5.9
	C304.8,32.1,357.6,94,365,168.2c0.1,1.4,0.6,2.9,0.9,4.3C365.8,181.5,365.8,190.5,365.8,199.5z M360.8,186.1
	c0-95.4-77.5-173.4-172.5-173.5C92,12.4,13.9,89.7,13.9,185.2c-0.1,96.4,77.3,174.3,173.3,174.3C283,359.5,360.8,281.8,360.8,186.1z
	"/>
<g>
	<path class="st0" d="M302.9,112.9c-1.4,3.4-3.9,6-6.3,8.6c-4.6,5-9.3,9.8-14.7,13.9c-1.3,0.9-1.7,2-1.6,3.6
		c0.5,16.9-2.2,33.2-8,49.1c-11.3,31.3-30.8,55.9-60,72.5c-15.4,8.8-31.9,13.9-49.5,15.9c-21.8,2.6-42.9,0.2-63.5-7.2
		c-8.9-3.2-17.5-7.2-25.8-12.9c12.8,1.3,24.9,0.1,36.8-3.1c12-3.3,22.9-8.8,32.8-16.6c-21.5-1.5-36-12.2-44.3-32.7
		c7.5,0.9,14.3,0.9,21.2-1.2c-24.8-6-38.3-26.6-37.4-46.8c6.5,3.2,13.1,5.5,21.1,5.9c-10.3-7.6-17.1-16.9-19.7-28.8
		c-2.6-11.9-1.2-23.3,5.1-34.3c25.7,30.1,58,46.6,97.7,49.4c-1.1-4.7-1.2-9.3-0.9-13.9c0.7-12.6,5.9-23.1,15.1-31.7
		c7.6-7.1,16.6-11.1,26.8-12.3c10.3-1.1,20.1,1,29.1,6.2c3.4,1.9,6.5,4.2,9.1,7.1c1,1.1,2,1.3,3.5,0.9c9-2.2,17.7-5.2,25.8-9.8
		c0.5-0.3,1.1-0.5,2.1-1.1c-3.7,10.8-10.1,18.8-19.4,25.1c2.5,0.9,4.5,0,6.4-0.4c5.7-1.2,11.4-2.8,16.9-5.1
		C301.6,113.1,302.3,113.1,302.9,112.9L302.9,112.9z"/>
	<path class="st0" d="M302.9,112.9c0.1-0.1,0.2-0.1,0.3-0.2C303.1,112.8,303,112.9,302.9,112.9C302.9,112.9,302.9,112.9,302.9,112.9
		z"/>
</g>
</svg>
